# xmcd
#
# Track frame offsets:
#	150
#	9919
#	16263
#	22053
#	27812
#	38548
#	50497
#	60240
#	69814
#	77187
#	83093
#	89845
#	99765
#	108743
#	119651
#	129274
#	137872
#	152382
#	161526
#	172490
#	184109
#	194614
#	202358
#	218671
#	229398
#	240580
#	249625
#	265478
#	277385
#	289375
#	310498
#	329151
#	339887
#
# Disc length: 4798 seconds
#
# Revision: 1
# Processed by: cddbd v1.5.1PL0 Copyright (c) Steve Scherf et al.
# Submitted via: CDex 1.50Beta5
#
DISCID=eb12bc21
DTITLE=Excelsia - FINAL FANTASY -2nd best collection-
DYEAR=1900
DGENRE=Soundtrack
TTITLE0=オープニングテーマ
TTITLE1=街
TTITLE2=海底神殿
TTITLE3=パンデモニウム城
TTITLE4=戦闘シーン2
TTITLE5=故郷の街ウル
TTITLE6=古代人の村
TTITLE7=隠れ村ファルガバード
TTITLE8=巨大戦艦インビジブル
TTITLE9=禁断の地エウレカ
TTITLE10=クリスタルタワー
TTITLE11=赤い翼
TTITLE12=ダンジョン
TTITLE13=バトル2
TTITLE14=バブイルの塔
TTITLE15=黒い甲冑ゴルベーザ〜ゾットの塔
TTITLE16=ゴルベーザ四天王バトル
TTITLE17=レナのテーマ
TTITLE18=街のテーマ
TTITLE19=バトル2
TTITLE20=未知なる大地
TTITLE21=光を求めて
TTITLE22=最後の闘い
TTITLE23=シャドゥのテーマ
TTITLE24=カイエンのテーマ
TTITLE25=セッツァーのテーマ
TTITLE26=運命のコイン
TTITLE27=永遠に、レイチェル
TTITLE28=死闘
TTITLE29=エアリスのテーマ
TTITLE30=The Extreme
TTITLE31=独りじゃない
TTITLE32=いつか終わる夢
EXTD=
EXTT0=
EXTT1=
EXTT2=
EXTT3=
EXTT4=
EXTT5=
EXTT6=
EXTT7=
EXTT8=
EXTT9=
EXTT10=
EXTT11=
EXTT12=
EXTT13=
EXTT14=
EXTT15=
EXTT16=
EXTT17=
EXTT18=
EXTT19=
EXTT20=
EXTT21=
EXTT22=
EXTT23=
EXTT24=
EXTT25=
EXTT26=
EXTT27=
EXTT28=
EXTT29=
EXTT30=
EXTT31=
EXTT32=
PLAYORDER=
